<?xml version="1.0" encoding="UTF-8"?>
<svg xmlns="http://www.w3.org/2000/svg" viewBox="0 0 220 220">
  <defs>
    <style>
      .uuid-ef6b0077-5653-421e-8078-df37437b2d99 {
        fill: #fff;
      }

      .uuid-ef6b0077-5653-421e-8078-df37437b2d99, .uuid-d96e8a91-a097-488e-bbd6-a8da2211a2e8 {
        stroke-width: 0px;
      }

      .uuid-d96e8a91-a097-488e-bbd6-a8da2211a2e8 {
        fill: #a87c4f;
      }
    </style>
  </defs>
  <g id="uuid-24880742-c2f9-466e-984e-ed9a9e4fdb6a" data-name="BACKGROUND">
    <rect class="uuid-ef6b0077-5653-421e-8078-df37437b2d99" width="220" height="220"/>
  </g>
  <g id="uuid-f81dc397-3c76-4537-84df-6e7ec1d0521f" data-name="OBJECT">
    <g>
      <rect class="uuid-d96e8a91-a097-488e-bbd6-a8da2211a2e8" x="134.75" y="132.39" width="10.84" height="1.05"/>
      <path class="uuid-d96e8a91-a097-488e-bbd6-a8da2211a2e8" d="m170.98,153.88h-17.23s0-.03-.01-.04l-6.92-15.19h8.1c.26,0,.47-.21.47-.47v-10.52c0-.26-.21-.47-.47-.47h-11.52l.76-5.32s0-.03,0-.04c0,0,0-.01,0-.02,0-.01,0-.02,0-.03,0-.09-.03-.17-.08-.24-.35-.64-1.88-.85-3.22-.9.38-.47,1.08-.99,2.37-1.24,2.1,1.05,3.41-.76,3.41-.76,0,0-1.56-1.47-3.37-.19-.02,0-.03-.02-.05-.01-1.17.2-1.96.61-2.51,1.05.29-1.21.94-3,2.35-3.88,2.23-.3,2.36-2.44,2.36-2.44,0,0-2.15-.42-2.98,1.73-1.02.69-1.69,1.73-2.12,2.75-.24-1.7-.74-3.5-1.76-4.8,0-.01-.02,0-.03-.02-.47-2.12-2.57-2.12-2.57-2.12,0,0-.29,2.23,1.99,2.9,1.14,1.6,1.51,4.03,1.6,5.95-.7-.86-1.91-1.67-4.02-1.84-1.87-1.16-3.34.38-3.34.38,0,0,1.4,1.74,3.44.58,2.11.21,3.09,1.15,3.54,1.95-1.35.05-2.96.25-3.32.91-.05.07-.08.16-.08.24,0,.01-.01.02-.01.03,0,0,0,.01,0,.02,0,.02,0,.03,0,.04l.75,5.32h-11.09c-.26,0-.47.21-.47.47v10.52c0,.26.21.47.47.47h8.1l-6.92,15.19s0,.03-.01.04h-13.09l-2.13-4.64c9.25-2.08,10.86-23.43,10.88-23.65.15-2.15-.6-4.08-2.17-5.6-1.76-1.7-4.38-2.63-6.93-2.51v-6.64s-.2-4.05-6.42-4.42h-24.3c-6.19.38-6.39,4.38-6.39,4.44v6.63c-2.55-.12-5.16.8-6.93,2.51-1.57,1.52-2.32,3.46-2.17,5.6.02.22,1.61,21.5,10.89,23.64l-2.08,4.64h-13.46v-62.76l29.95-17.79v10.61c-2.23.24-3.99,2.11-3.99,4.41,0,.26.21.47.47.47h.83c.34,1.36,1.55,2.37,3.01,2.37s2.67-1.01,3.01-2.37h1.15c.26,0,.47-.21.47-.47,0-.05,0-.11-.03-.16-.08-2.23-1.8-4.02-3.99-4.26v-10.6l32.83,20.73c.22.14.51.07.65-.15.14-.22.07-.51-.15-.65l-32.88-20.76,9.79-5.82,41.36,24.57c.22.13.51.06.64-.16.13-.22.06-.51-.16-.64l-41.6-24.71c-.15-.09-.33-.09-.48,0l-10.45,6.21-10.61-6.7c-.15-.09-.34-.1-.49,0l-32.85,19.89c-.14.09-.23.24-.23.4v68.81c0,.26.21.47.47.47h121.95c.26,0,.47-.21.47-.47s-.21-.47-.47-.47Zm-78.43-63.63c-.94,0-1.73-.6-2.03-1.43h4.06c-.3.83-1.1,1.43-2.03,1.43Zm3.64-2.37h-.58c-.08-.16-.23-.27-.42-.27s-.35.11-.42.27h-4.43c-.08-.16-.24-.27-.42-.27s-.35.11-.42.27h-.28c.23-1.72,1.71-3.05,3.49-3.05s3.26,1.33,3.49,3.05Zm-46.69-2.08l32.37-19.61,9.96,6.29-30.25,17.96c-.14.08-.23.24-.23.4v63.03h-11.85v-68.08Zm90.99,35.76c1.03.03,1.81.13,2.28.25-.48.11-1.27.22-2.31.25,0-.14.02-.3.02-.49Zm-.99,0s0,.02,0,.03t0,0c.02.09.03.16.03.2,0,.1-.01.18-.02.26-1.07-.02-1.89-.13-2.37-.25.48-.12,1.29-.22,2.36-.25Zm-2.69,1.12c.91.26,2.21.32,3.14.32h0c.93,0,2.23-.06,3.14-.32l-.64,4.51h-5l-.64-4.51Zm-10.93,5.45h28.58v9.58h-28.58v-9.58Zm8.66,10.52h11.25l6.94,15.23h-25.12l6.94-15.23Zm-23.06,15.23l-3.43-4.52h2.32l2.07,4.52h-.97Zm-16.9-4.51h12.3s3.42,4.51,3.42,4.51h-31.46l3.44-4.51h12.3Zm-12.13-42h24.24c5.3.32,5.5,3.39,5.51,3.5v6.76c-3.58.93-3.68,8.36-3.58,11.22-3.09-2.4-8.08-3.74-14.03-3.74s-10.94,1.35-14.04,3.75c.1-2.85,0-10.28-3.58-11.22v-6.74c0-.13.21-3.2,5.48-3.52Zm-2.45,23.23c2.71-2.9,8.02-4.57,14.59-4.57s11.88,1.66,14.59,4.57c1.46,1.57,2.13,3.44,1.98,5.55-.42,6.03-4.39,6.43-4.68,6.45h-23.76c-.17,0-4.26-.32-4.69-6.45-.15-2.12.52-3.98,1.98-5.55Zm-12.13-5.07c-.16-2.35.94-3.94,1.89-4.86,1.69-1.63,4.25-2.48,6.69-2.22,3.22.34,3.34,8.13,3.11,11.28-.08.08-.18.15-.25.23-1.65,1.77-2.4,3.87-2.23,6.26.49,6.98,5.53,7.31,5.6,7.32h23.8s.02,0,.02,0c.05,0,5.09-.34,5.58-7.32.17-2.39-.58-4.49-2.23-6.26-.08-.08-.18-.15-.26-.23-.23-3.15-.1-10.94,3.11-11.28,2.44-.26,5.01.59,6.7,2.22.95.92,2.06,2.51,1.89,4.86-.02.22-1.63,21.76-10.62,22.9h-32.14c-9.05-1.14-10.66-22.68-10.68-22.9Zm10.92,23.84h2.32l-3.44,4.51h-.9l2.02-4.51Z"/>
    </g>
  </g>
</svg>